<svg width="18" height="18" viewBox="0 0 18 18" fill="none" xmlns="http://www.w3.org/2000/svg">
<path fill-rule="evenodd" clip-rule="evenodd" d="M5.22678 16.1482C5.17439 16.096 5.13283 16.0339 5.10448 15.9656C5.07612 15.8972 5.06152 15.824 5.06152 15.75C5.06152 15.676 5.07612 15.6027 5.10448 15.5344C5.13283 15.466 5.17439 15.404 5.22678 15.3517L11.5797 8.99997L5.22678 2.64822C5.17448 2.59592 5.13299 2.53383 5.10469 2.4655C5.07639 2.39717 5.06182 2.32393 5.06182 2.24997C5.06182 2.17601 5.07639 2.10277 5.10469 2.03444C5.13299 1.96611 5.17448 1.90402 5.22678 1.85172C5.27908 1.79942 5.34117 1.75794 5.4095 1.72963C5.47783 1.70133 5.55107 1.68676 5.62503 1.68676C5.69899 1.68676 5.77223 1.70133 5.84056 1.72963C5.90889 1.75794 5.97098 1.79942 6.02328 1.85172L12.7733 8.60172C12.8257 8.65397 12.8672 8.71605 12.8956 8.78438C12.9239 8.85272 12.9385 8.92598 12.9385 8.99997C12.9385 9.07396 12.9239 9.14722 12.8956 9.21556C12.8672 9.2839 12.8257 9.34597 12.7733 9.39822L6.02328 16.1482C5.97103 16.2006 5.90895 16.2422 5.84062 16.2705C5.77228 16.2989 5.69902 16.3135 5.62503 16.3135C5.55104 16.3135 5.47778 16.2989 5.40944 16.2705C5.3411 16.2422 5.27903 16.2006 5.22678 16.1482Z" fill="#E60000"/>
</svg>
