<svg width="18" height="18" viewBox="0 0 18 18" fill="none" xmlns="http://www.w3.org/2000/svg">
<path fill-rule="evenodd" clip-rule="evenodd" d="M1.6875 9C1.6875 4.96125 4.96125 1.6875 9 1.6875C13.0387 1.6875 16.3125 4.96125 16.3125 9V11.0948C16.3973 11.0648 16.4881 11.0556 16.5773 11.0679C16.6664 11.0803 16.7513 11.1138 16.8247 11.1658C16.8982 11.2177 16.9581 11.2865 16.9995 11.3664C17.0409 11.4464 17.0625 11.535 17.0625 11.625V13.125C17.0625 13.2155 17.0406 13.3047 16.9987 13.3849C16.9569 13.4652 16.8963 13.5342 16.8221 13.586C16.7479 13.6378 16.6623 13.671 16.5725 13.6826C16.4827 13.6943 16.3915 13.6841 16.3065 13.653C16.302 13.803 16.2952 13.9425 16.284 14.0693C16.254 14.3955 16.188 14.6963 16.0267 14.9783C15.9195 15.1658 15.7845 15.336 15.6255 15.4823C15.3855 15.7035 15.1065 15.8295 14.7983 15.9233C14.5073 16.011 14.145 16.083 13.716 16.167L13.6605 16.1782C13.368 16.236 13.1025 16.2885 12.8805 16.3057C12.6427 16.3245 12.3742 16.3117 12.1178 16.167C11.9657 16.0816 11.8322 15.9669 11.7248 15.8295C11.547 15.6015 11.4878 15.342 11.4622 15.102C11.4375 14.877 11.4375 14.598 11.4375 14.286V10.359C11.4375 10.0935 11.4375 9.855 11.4562 9.65925C11.4765 9.45 11.5238 9.22425 11.661 9.015C11.7743 8.8425 11.9265 8.6985 12.1058 8.595C12.327 8.4675 12.558 8.439 12.7657 8.4375C12.9585 8.436 13.1895 8.45925 13.4415 8.484L13.494 8.48925C13.9335 8.532 14.3032 8.56875 14.6025 8.628C14.808 8.6685 15.0023 8.724 15.1845 8.81175C15.1344 7.20486 14.4609 5.68055 13.3066 4.56159C12.1522 3.44264 10.6077 2.81691 9 2.81691C7.39233 2.81691 5.84778 3.44264 4.69343 4.56159C3.53907 5.68055 2.86556 7.20486 2.8155 8.81175C2.99775 8.724 3.192 8.66925 3.3975 8.628C3.6975 8.56875 4.0665 8.53275 4.506 8.48925L4.5585 8.484C4.8105 8.45925 5.0415 8.436 5.2335 8.4375C5.442 8.439 5.673 8.4675 5.8935 8.595C6.0735 8.6985 6.22575 8.8425 6.339 9.015C6.47625 9.225 6.52275 9.45 6.54375 9.65925C6.5625 9.85425 6.5625 10.0935 6.5625 10.359V14.286C6.5625 14.598 6.5625 14.8762 6.5385 15.102C6.51225 15.342 6.453 15.6015 6.27525 15.8295C6.16783 15.9669 6.03426 16.0816 5.88225 16.167C5.62575 16.3117 5.35725 16.3245 5.11875 16.3057C4.85665 16.2773 4.59627 16.2347 4.33875 16.1782L4.284 16.167C3.855 16.083 3.49275 16.011 3.20175 15.9233C2.8935 15.8295 2.6145 15.7035 2.3745 15.4823C2.21576 15.3358 2.08044 15.1658 1.97325 14.9783C1.812 14.6963 1.74675 14.3955 1.716 14.0693C1.70403 13.9308 1.69653 13.792 1.6935 13.653C1.60851 13.6841 1.51726 13.6943 1.4275 13.6826C1.33774 13.671 1.25213 13.6378 1.17792 13.586C1.10371 13.5342 1.04311 13.4652 1.00125 13.3849C0.959397 13.3047 0.937527 13.2155 0.9375 13.125V11.625C0.937513 11.535 0.959113 11.4464 1.00049 11.3664C1.04186 11.2865 1.1018 11.2177 1.17527 11.1658C1.24875 11.1138 1.33361 11.0803 1.42274 11.0679C1.51187 11.0556 1.60266 11.0648 1.6875 11.0948V9ZM2.8125 12.8948C2.8125 13.3838 2.8125 13.7123 2.8365 13.965C2.859 14.2095 2.8995 14.3325 2.949 14.4195C3.00075 14.508 3.06375 14.5875 3.1365 14.655C3.2055 14.7188 3.3075 14.7795 3.528 14.8463C3.759 14.9167 4.06575 14.9775 4.52775 15.069C4.85925 15.1342 5.06025 15.1725 5.20725 15.1845C5.24986 15.1897 5.29295 15.1894 5.3355 15.1838C5.35566 15.1715 5.37344 15.1558 5.388 15.1373C5.40648 15.0874 5.4171 15.0351 5.4195 14.982C5.43675 14.8237 5.4375 14.607 5.4375 14.2575V10.3837C5.4375 10.0852 5.4375 9.903 5.424 9.76875C5.42206 9.72227 5.41347 9.6763 5.3985 9.63225C5.38235 9.60797 5.36111 9.5875 5.33625 9.57225C5.29999 9.56481 5.263 9.56154 5.226 9.5625C5.03119 9.56814 4.83674 9.58266 4.64325 9.606C4.17 9.6525 3.85575 9.684 3.61575 9.732C3.387 9.777 3.2805 9.828 3.20925 9.882C3.10425 9.96075 3.01425 10.062 2.94675 10.182C2.89875 10.2675 2.85825 10.3905 2.8365 10.6388C2.81325 10.8945 2.8125 11.2275 2.8125 11.721V12.8948ZM15.1875 11.721C15.1875 11.2275 15.1875 10.8945 15.1635 10.6388C15.141 10.3913 15.1012 10.2675 15.0532 10.1812C14.9869 10.0645 14.8976 9.96248 14.7908 9.88125C14.7195 9.828 14.613 9.777 14.3843 9.73125C14.1443 9.684 13.83 9.6525 13.3568 9.606C13.1633 9.58266 12.9688 9.56815 12.774 9.5625C12.737 9.56129 12.7 9.56431 12.6637 9.5715C12.6388 9.58696 12.6176 9.6077 12.6015 9.63225C12.5866 9.67605 12.578 9.72177 12.576 9.768C12.5632 9.903 12.5625 10.0852 12.5625 10.383V14.2575C12.5625 14.607 12.5633 14.8238 12.5805 14.9813C12.5828 15.0346 12.5934 15.0872 12.612 15.1373C12.6267 15.1557 12.6444 15.1714 12.6645 15.1838C12.6765 15.186 12.7125 15.1913 12.792 15.1838C12.9405 15.1725 13.1407 15.1342 13.4722 15.069C13.9342 14.9775 14.241 14.9167 14.472 14.8463C14.6925 14.7795 14.7945 14.7188 14.8635 14.655C14.9363 14.5875 14.9993 14.508 15.051 14.4195C15.1005 14.3317 15.141 14.2095 15.1635 13.965C15.1868 13.7115 15.1875 13.3838 15.1875 12.8948V11.721Z" fill="#1C1C1C"/>
</svg>
